<svg width="1091" height="453" viewBox="0 0 1091 453" fill="none" xmlns="http://www.w3.org/2000/svg">
<g filter="url(#filter0_d_256_57)">
<path d="M893 63H91V382H893V63Z" fill="white"/>
<path d="M812 382H1029V370.783C1024.49 370.674 1020.22 369.562 1017.1 367.681C1013.97 365.8 1012.23 363.294 1012.23 360.688C1012.23 358.082 1013.97 355.577 1017.1 353.696C1020.22 351.815 1024.49 350.703 1029 350.594V339.826C1024.49 339.716 1020.22 338.604 1017.1 336.723C1013.97 334.842 1012.23 332.337 1012.23 329.731C1012.23 327.125 1013.97 324.619 1017.1 322.738C1020.22 320.857 1024.49 319.746 1029 319.636V308.868C1024.49 308.758 1020.22 307.646 1017.1 305.765C1013.97 303.884 1012.23 301.379 1012.23 298.773C1012.23 296.167 1013.97 293.662 1017.1 291.78C1020.22 289.899 1024.49 288.788 1029 288.678V277.91C1024.49 277.8 1020.22 276.689 1017.1 274.807C1013.97 272.926 1012.23 270.421 1012.23 267.815C1012.23 265.209 1013.97 262.704 1017.1 260.823C1020.22 258.941 1024.49 257.83 1029 257.72V246.952C1024.49 246.842 1020.22 245.731 1017.1 243.85C1013.97 241.969 1012.23 239.463 1012.23 236.857C1012.23 234.251 1013.97 231.746 1017.1 229.865C1020.22 227.984 1024.49 226.872 1029 226.762V215.994C1024.49 215.885 1020.22 214.773 1017.1 212.892C1013.97 211.011 1012.23 208.505 1012.23 205.899C1012.23 203.293 1013.97 200.788 1017.1 198.907C1020.22 197.026 1024.49 195.914 1029 195.805V185.037C1024.49 184.927 1020.22 183.815 1017.1 181.934C1013.97 180.053 1012.23 177.548 1012.23 174.942C1012.23 172.336 1013.97 169.83 1017.1 167.949C1020.22 166.068 1024.49 164.956 1029 164.847V154.079C1024.49 153.969 1020.22 152.857 1017.1 150.976C1013.97 149.095 1012.23 146.59 1012.23 143.984C1012.23 141.378 1013.97 138.873 1017.1 136.991C1020.22 135.11 1024.49 133.999 1029 133.889V123.121C1024.49 123.011 1020.22 121.9 1017.1 120.018C1013.97 118.137 1012.23 115.632 1012.23 113.026C1012.23 110.42 1013.97 107.915 1017.1 106.034C1020.22 104.152 1024.49 103.041 1029 102.931V92.1631C1024.49 92.0533 1020.22 90.9418 1017.1 89.0606C1013.97 87.1795 1012.23 84.6742 1012.23 82.0682C1012.23 79.4622 1013.97 76.957 1017.1 75.0758C1020.22 73.1947 1024.49 72.0831 1029 71.9733V63H812V382Z" fill="white"/>
<path d="M171.962 63H38V74.2204C40.7864 74.3302 43.4197 75.4422 45.3497 77.324C47.2798 79.2058 48.3573 81.7118 48.3573 84.3187C48.3573 86.9256 47.2798 89.4317 45.3497 91.3135C43.4197 93.1953 40.7864 94.3072 38 94.4171V105.189C40.7864 105.298 43.4197 106.41 45.3497 108.292C47.2798 110.174 48.3573 112.68 48.3573 115.287C48.3573 117.894 47.2798 120.4 45.3497 122.282C43.4197 124.164 40.7864 125.275 38 125.385V136.157C40.7864 136.267 43.4197 137.379 45.3497 139.26C47.2798 141.142 48.3573 143.648 48.3573 146.255C48.3573 148.862 47.2798 151.368 45.3497 153.25C43.4197 155.132 40.7864 156.244 38 156.354V167.125C40.6428 167.402 43.0838 168.579 44.8565 170.432C46.6291 172.285 47.6091 174.684 47.6091 177.17C47.6091 179.655 46.6291 182.054 44.8565 183.907C43.0838 185.76 40.6428 186.937 38 187.214V197.986C40.7864 198.096 43.4197 199.207 45.3497 201.089C47.2798 202.971 48.3573 205.477 48.3573 208.084C48.3573 210.691 47.2798 213.197 45.3497 215.079C43.4197 216.961 40.7864 218.073 38 218.182V228.954C40.7864 229.064 43.4197 230.176 45.3497 232.058C47.2798 233.939 48.3573 236.445 48.3573 239.052C48.3573 241.659 47.2798 244.165 45.3497 246.047C43.4197 247.929 40.7864 249.041 38 249.151V259.922C40.7864 260.032 43.4197 261.144 45.3497 263.026C47.2798 264.908 48.3573 267.414 48.3573 270.021C48.3573 272.627 47.2798 275.134 45.3497 277.015C43.4197 278.897 40.7864 280.009 38 280.119V290.89C40.7864 291 43.4197 292.112 45.3497 293.994C47.2798 295.876 48.3573 298.382 48.3573 300.989C48.3573 303.596 47.2798 306.102 45.3497 307.984C43.4197 309.865 40.7864 310.977 38 311.087V321.859C40.7864 321.969 43.4197 323.081 45.3497 324.962C47.2798 326.844 48.3573 329.35 48.3573 331.957C48.3573 334.564 47.2798 337.07 45.3497 338.952C43.4197 340.834 40.7864 341.946 38 342.055V352.827C40.7864 352.937 43.4197 354.049 45.3497 355.931C47.2798 357.812 48.3573 360.318 48.3573 362.925C48.3573 365.532 47.2798 368.038 45.3497 369.92C43.4197 371.802 40.7864 372.914 38 373.024V382H172L171.962 63Z" fill="#701A36"/>
<path d="M89.4545 363.301V358.886L114.81 348.506V348.148L89.4545 337.767V333.352H120V336.812H96.7926V337.111L120 346.656V349.997L96.7926 359.543V359.841H120V363.301H89.4545ZM89.4545 322.237H120V325.936H89.4545V322.237ZM89.4545 290.599H120V294.179L96.017 310.824V311.122H120V314.821H89.4545V311.241L113.497 294.537V294.238H89.4545V290.599ZM120 283.198H89.4545V264.763H92.7358V279.499H103.057V265.718H106.338V279.499H116.719L116.719 264.524H120L120 283.198ZM120 258.096H89.4545V247.775C89.4545 245.389 89.8622 243.43 90.6776 241.899C91.483 240.367 92.5916 239.234 94.0036 238.498C95.4155 237.762 97.0213 237.394 98.821 237.394C100.621 237.394 102.217 237.762 103.609 238.498C105.001 239.234 106.094 240.362 106.89 241.884C107.675 243.405 108.068 245.349 108.068 247.715V256.068H104.727V247.835C104.727 246.204 104.489 244.892 104.011 243.897C103.534 242.893 102.858 242.167 101.983 241.72C101.098 241.262 100.044 241.034 98.821 241.034C97.598 241.034 96.5291 241.262 95.6143 241.72C94.6996 242.177 93.9936 242.908 93.4964 243.912C92.9893 244.916 92.7358 246.244 92.7358 247.894V254.397H120V258.096ZM106.278 243.718L120 236.201V240.497L106.278 247.894V243.718ZM89.4545 227.532H120V231.231H89.4545V227.532ZM120 218.863V222.741L89.4545 211.525V207.706L120 196.491V200.368L94.2869 209.496V209.735L120 218.863ZM108.068 217.431V201.8H111.349L111.349 217.431H108.068ZM120 180.457H117.315L106.278 170.375C104.986 169.192 103.862 168.217 102.908 167.452C101.943 166.686 101.038 166.119 100.193 165.751C99.3381 165.373 98.4432 165.184 97.5085 165.184C96.4347 165.184 95.505 165.443 94.7195 165.96C93.9339 166.467 93.3274 167.163 92.8999 168.048C92.4723 168.933 92.2585 169.927 92.2585 171.031C92.2585 172.204 92.5021 173.229 92.9893 174.104C93.4666 174.969 94.1378 175.64 95.0028 176.117C95.8679 176.584 96.8821 176.818 98.0455 176.818V180.338C96.2557 180.338 94.6847 179.925 93.3324 179.1C91.9801 178.275 90.9261 177.151 90.1705 175.729C89.4148 174.297 89.0369 172.692 89.0369 170.912C89.0369 169.122 89.4148 167.536 90.1705 166.154C90.9261 164.772 91.9453 163.688 93.228 162.903C94.5107 162.117 95.9375 161.724 97.5085 161.724C98.6321 161.724 99.7308 161.928 100.805 162.336C101.869 162.733 103.057 163.43 104.369 164.424C105.672 165.408 107.263 166.775 109.142 168.525L116.48 175.386H116.719V161.187H120V180.457ZM120 154.491H89.4545V150.792H104.608V150.434L89.4545 136.712V131.88L103.236 144.706L120 131.88V136.354L105.801 146.974L110.097 150.792H120V154.491ZM120 127.629H117.315L106.278 117.547C104.986 116.363 103.862 115.389 102.908 114.623C101.943 113.858 101.038 113.291 100.193 112.923C99.3381 112.545 98.4432 112.356 97.5085 112.356C96.4347 112.356 95.505 112.615 94.7195 113.132C93.9339 113.639 93.3274 114.335 92.8999 115.22C92.4723 116.105 92.2585 117.099 92.2585 118.203C92.2585 119.376 92.5021 120.4 92.9893 121.275C93.4666 122.14 94.1378 122.812 95.0028 123.289C95.8679 123.756 96.8821 123.99 98.0455 123.99V127.51C96.2557 127.51 94.6847 127.097 93.3324 126.272C91.9801 125.447 90.9261 124.323 90.1705 122.901C89.4148 121.469 89.0369 119.863 89.0369 118.084C89.0369 116.294 89.4148 114.708 90.1705 113.326C90.9261 111.944 91.9453 110.86 93.228 110.074C94.5107 109.289 95.9375 108.896 97.5085 108.896C98.6321 108.896 99.7308 109.1 100.805 109.508C101.869 109.905 103.057 110.601 104.369 111.596C105.672 112.58 107.263 113.947 109.142 115.697L116.48 122.558H116.719V108.359H120V127.629ZM120 102.199H117.315L106.278 92.117C104.986 90.9338 103.862 89.9593 102.908 89.1937C101.943 88.4281 101.038 87.8613 100.193 87.4934C99.3381 87.1156 98.4432 86.9267 97.5085 86.9267C96.4347 86.9267 95.505 87.1852 94.7195 87.7022C93.9339 88.2093 93.3274 88.9054 92.8999 89.7903C92.4723 90.6752 92.2585 91.6696 92.2585 92.7733C92.2585 93.9466 92.5021 94.9707 92.9893 95.8457C93.4666 96.7108 94.1378 97.3819 95.0028 97.8592C95.8679 98.3265 96.8821 98.5602 98.0455 98.5602V102.08C96.2557 102.08 94.6847 101.667 93.3324 100.842C91.9801 100.017 90.9261 98.8933 90.1705 97.4714C89.4148 96.0396 89.0369 94.4338 89.0369 92.6539C89.0369 90.8642 89.4148 89.2782 90.1705 87.8961C90.9261 86.514 91.9453 85.4302 93.228 84.6447C94.5107 83.8592 95.9375 83.4664 97.5085 83.4664C98.6321 83.4664 99.7308 83.6703 100.805 84.0779C101.869 84.4757 103.057 85.1717 104.369 86.166C105.672 87.1504 107.263 88.5176 109.142 90.2676L116.48 97.1284H116.719V82.9295H120V102.199Z" fill="white"/>
<path d="M243.781 185.664L207.433 204.79L214.39 164.323L185 135.682L225.591 129.785L243.781 93L261.939 129.785L302.53 135.682L273.14 164.323L280.066 204.79L243.781 185.664Z" fill="#701A36"/>
<path d="M918.781 185.664L882.464 204.79L889.39 164.323L860 135.682L900.622 129.785L918.781 93L936.939 129.785L977.53 135.682L948.171 164.323L955.098 204.79L918.781 185.664Z" fill="#701A36"/>
<path d="M322.165 185V134.091H339.366C343.344 134.091 346.608 134.77 349.161 136.129C351.713 137.472 353.602 139.319 354.828 141.673C356.054 144.026 356.668 146.702 356.668 149.702C356.668 152.701 356.054 155.361 354.828 157.681C353.602 160.001 351.721 161.824 349.185 163.15C346.65 164.459 343.41 165.114 339.466 165.114H325.545V159.545H339.267C341.985 159.545 344.172 159.148 345.83 158.352C347.503 157.557 348.713 156.43 349.459 154.972C350.221 153.497 350.602 151.74 350.602 149.702C350.602 147.663 350.221 145.882 349.459 144.357C348.696 142.833 347.478 141.656 345.805 140.827C344.131 139.982 341.919 139.56 339.168 139.56H328.33V185H322.165ZM346.128 162.131L358.656 185H351.497L339.168 162.131H346.128ZM366.94 185V134.091H397.665V139.56H373.105V156.761H396.074V162.23H373.105V179.531H398.062V185H366.94ZM443.577 150C443.03 148.326 442.309 146.826 441.415 145.501C440.536 144.158 439.484 143.015 438.258 142.07C437.048 141.126 435.672 140.405 434.131 139.908C432.59 139.411 430.9 139.162 429.06 139.162C426.044 139.162 423.301 139.941 420.832 141.499C418.363 143.056 416.399 145.352 414.941 148.384C413.483 151.417 412.753 155.137 412.753 159.545C412.753 163.954 413.491 167.674 414.966 170.707C416.441 173.739 418.438 176.035 420.956 177.592C423.475 179.15 426.309 179.929 429.458 179.929C432.375 179.929 434.943 179.308 437.164 178.065C439.401 176.805 441.141 175.032 442.384 172.745C443.644 170.442 444.273 167.732 444.273 164.616L446.162 165.014H430.85V159.545H450.239V165.014C450.239 169.207 449.344 172.853 447.555 175.952C445.781 179.051 443.329 181.454 440.197 183.161C437.081 184.851 433.501 185.696 429.458 185.696C424.95 185.696 420.99 184.635 417.576 182.514C414.179 180.393 411.527 177.377 409.621 173.466C407.732 169.555 406.787 164.915 406.787 159.545C406.787 155.518 407.326 151.897 408.403 148.683C409.497 145.451 411.038 142.7 413.027 140.43C415.015 138.159 417.369 136.419 420.086 135.21C422.804 134 425.796 133.395 429.06 133.395C431.745 133.395 434.247 133.801 436.567 134.613C438.904 135.408 440.984 136.544 442.807 138.018C444.646 139.477 446.179 141.225 447.405 143.263C448.632 145.285 449.477 147.531 449.941 150H443.577ZM466.962 134.091V185H460.798V134.091H466.962ZM507.164 146.818C506.866 144.299 505.656 142.344 503.535 140.952C501.413 139.56 498.812 138.864 495.729 138.864C493.475 138.864 491.503 139.228 489.813 139.957C488.139 140.687 486.83 141.689 485.885 142.965C484.957 144.241 484.493 145.691 484.493 147.315C484.493 148.674 484.817 149.843 485.463 150.82C486.126 151.781 486.971 152.585 487.998 153.232C489.026 153.861 490.103 154.383 491.23 154.798C492.357 155.195 493.393 155.518 494.337 155.767L499.508 157.159C500.833 157.507 502.308 157.988 503.932 158.601C505.573 159.214 507.139 160.051 508.631 161.112C510.139 162.156 511.381 163.498 512.359 165.138C513.337 166.779 513.826 168.793 513.826 171.179C513.826 173.93 513.105 176.416 511.663 178.636C510.238 180.857 508.15 182.622 505.399 183.931C502.665 185.24 499.342 185.895 495.431 185.895C491.785 185.895 488.628 185.307 485.96 184.13C483.309 182.953 481.22 181.313 479.696 179.208C478.188 177.103 477.334 174.659 477.135 171.875H483.499C483.665 173.797 484.311 175.388 485.438 176.648C486.581 177.891 488.023 178.819 489.763 179.432C491.52 180.028 493.409 180.327 495.431 180.327C497.784 180.327 499.897 179.946 501.77 179.183C503.642 178.404 505.126 177.327 506.219 175.952C507.313 174.56 507.86 172.936 507.86 171.08C507.86 169.389 507.388 168.014 506.443 166.953C505.498 165.893 504.256 165.031 502.714 164.368C501.173 163.705 499.508 163.125 497.718 162.628L491.454 160.838C487.476 159.695 484.328 158.062 482.008 155.941C479.688 153.82 478.528 151.044 478.528 147.614C478.528 144.763 479.298 142.277 480.839 140.156C482.397 138.018 484.485 136.361 487.104 135.185C489.738 133.991 492.68 133.395 495.928 133.395C499.209 133.395 502.126 133.983 504.678 135.16C507.23 136.32 509.252 137.911 510.743 139.933C512.251 141.954 513.047 144.25 513.13 146.818H507.164ZM521.178 139.56V134.091H559.359V139.56H543.351V185H537.186V139.56H521.178ZM568.874 185V134.091H599.598V139.56H575.039V156.761H598.007V162.23H575.039V179.531H599.996V185H568.874ZM610.71 185V134.091H627.911C631.889 134.091 635.153 134.77 637.705 136.129C640.258 137.472 642.147 139.319 643.373 141.673C644.599 144.026 645.213 146.702 645.213 149.702C645.213 152.701 644.599 155.361 643.373 157.681C642.147 160.001 640.266 161.824 637.73 163.15C635.195 164.459 631.955 165.114 628.011 165.114H614.09V159.545H627.812C630.53 159.545 632.717 159.148 634.374 158.352C636.048 157.557 637.258 156.43 638.004 154.972C638.766 153.497 639.147 151.74 639.147 149.702C639.147 147.663 638.766 145.882 638.004 144.357C637.241 142.833 636.023 141.656 634.35 140.827C632.676 139.982 630.463 139.56 627.713 139.56H616.874V185H610.71ZM634.673 162.131L647.201 185H640.042L627.713 162.131H634.673ZM715.542 134.091V185H709.576L681.835 145.028H681.337V185H675.173V134.091H681.138L708.979 174.162H709.477V134.091H715.542ZM770.832 159.545C770.832 164.915 769.863 169.555 767.924 173.466C765.985 177.377 763.325 180.393 759.944 182.514C756.564 184.635 752.702 185.696 748.361 185.696C744.019 185.696 740.157 184.635 736.777 182.514C733.396 180.393 730.736 177.377 728.797 173.466C726.858 169.555 725.889 164.915 725.889 159.545C725.889 154.176 726.858 149.536 728.797 145.625C730.736 141.714 733.396 138.698 736.777 136.577C740.157 134.455 744.019 133.395 748.361 133.395C752.702 133.395 756.564 134.455 759.944 136.577C763.325 138.698 765.985 141.714 767.924 145.625C769.863 149.536 770.832 154.176 770.832 159.545ZM764.866 159.545C764.866 155.137 764.129 151.417 762.654 148.384C761.196 145.352 759.215 143.056 756.713 141.499C754.227 139.941 751.443 139.162 748.361 139.162C745.278 139.162 742.486 139.941 739.983 141.499C737.498 143.056 735.517 145.352 734.042 148.384C732.584 151.417 731.855 155.137 731.855 159.545C731.855 163.954 732.584 167.674 734.042 170.707C735.517 173.739 737.498 176.035 739.983 177.592C742.486 179.15 745.278 179.929 748.361 179.929C751.443 179.929 754.227 179.15 756.713 177.592C759.215 176.035 761.196 173.739 762.654 170.707C764.129 167.674 764.866 163.954 764.866 159.545ZM790.445 185L776.525 134.091H782.789L793.428 175.554H793.925L804.763 134.091H811.724L822.562 175.554H823.059L833.698 134.091H839.962L826.042 185H819.678L808.442 144.432H808.045L796.809 185H790.445Z" fill="#701A36"/>
<path d="M1029 258.145V247.322C1025.91 247.325 1022.87 246.832 1020.21 245.895C1017.56 244.958 1015.38 243.612 1013.91 242H617.477L507 299.509L617.477 357H1013.67C1015.07 355.307 1017.23 353.877 1019.92 352.87C1022.61 351.863 1025.73 351.319 1028.91 351.3V340.476C1024.49 340.366 1020.31 339.248 1017.25 337.358C1014.18 335.467 1012.47 332.948 1012.47 330.329C1012.47 327.71 1014.18 325.191 1017.25 323.301C1020.31 321.41 1024.49 320.292 1028.91 320.182V309.358C1024.49 309.248 1020.31 308.131 1017.25 306.24C1014.18 304.349 1012.47 301.831 1012.47 299.211C1012.47 296.592 1014.18 294.074 1017.25 292.183C1020.31 290.292 1024.49 289.175 1028.91 289.064V278.241C1024.49 278.13 1020.31 277.013 1017.25 275.122C1014.18 273.231 1012.47 270.713 1012.47 268.094C1012.47 265.474 1014.18 262.956 1017.25 261.065C1020.31 259.174 1024.49 258.057 1028.91 257.947L1029 258.145Z" fill="#701A36"/>
<path d="M730.278 280.46L727.864 288.699H681.841L684.256 280.46H730.278ZM708.688 336L682.693 304.182L682.551 298.216H695.477C698.839 298.216 701.704 297.742 704.071 296.795C706.438 295.825 708.25 294.381 709.504 292.463C710.759 290.522 711.386 288.083 711.386 285.148C711.386 280.815 710.084 277.418 707.48 274.956C704.876 272.47 700.875 271.227 695.477 271.227H681.841L684.256 263.273H695.477C701.254 263.273 705.989 264.232 709.682 266.149C713.399 268.043 716.145 270.647 717.92 273.962C719.72 277.252 720.619 280.981 720.619 285.148C720.619 288.912 719.791 292.38 718.134 295.553C716.5 298.701 713.872 301.234 710.25 303.152C706.652 305.07 701.893 306.028 695.974 306.028H695.761L719.767 335.432V336H708.688ZM730.278 263.273L727.864 271.511L691.642 271.227L694.057 263.273H730.278ZM794.225 263.273V336H785.419V272.506H784.993L767.237 284.295V275.347L785.419 263.273H794.225ZM838.863 336.994C833.513 336.994 828.956 335.538 825.191 332.626C821.427 329.691 818.551 325.441 816.562 319.878C814.574 314.291 813.579 307.544 813.579 299.636C813.579 291.777 814.574 285.065 816.562 279.501C818.574 273.914 821.463 269.653 825.227 266.717C829.015 263.758 833.56 262.278 838.863 262.278C844.166 262.278 848.7 263.758 852.464 266.717C856.252 269.653 859.14 273.914 861.129 279.501C863.141 285.065 864.147 291.777 864.147 299.636C864.147 307.544 863.153 314.291 861.164 319.878C859.176 325.441 856.299 329.691 852.535 332.626C848.771 335.538 844.214 336.994 838.863 336.994ZM838.863 329.182C844.166 329.182 848.286 326.625 851.221 321.511C854.157 316.398 855.625 309.106 855.625 299.636C855.625 293.339 854.95 287.977 853.6 283.55C852.275 279.123 850.357 275.749 847.848 273.429C845.362 271.109 842.367 269.949 838.863 269.949C833.608 269.949 829.5 272.541 826.541 277.726C823.582 282.887 822.102 290.19 822.102 299.636C822.102 305.934 822.765 311.284 824.091 315.688C825.416 320.091 827.322 323.441 829.808 325.737C832.317 328.034 835.336 329.182 838.863 329.182ZM901.363 336.994C896.013 336.994 891.456 335.538 887.691 332.626C883.927 329.691 881.051 325.441 879.062 319.878C877.074 314.291 876.079 307.544 876.079 299.636C876.079 291.777 877.074 285.065 879.062 279.501C881.074 273.914 883.963 269.653 887.727 266.717C891.515 263.758 896.06 262.278 901.363 262.278C906.666 262.278 911.2 263.758 914.964 266.717C918.752 269.653 921.64 273.914 923.629 279.501C925.641 285.065 926.647 291.777 926.647 299.636C926.647 307.544 925.653 314.291 923.664 319.878C921.676 325.441 918.799 329.691 915.035 332.626C911.271 335.538 906.714 336.994 901.363 336.994ZM901.363 329.182C906.666 329.182 910.786 326.625 913.721 321.511C916.657 316.398 918.125 309.106 918.125 299.636C918.125 293.339 917.45 287.977 916.1 283.55C914.775 279.123 912.857 275.749 910.348 273.429C907.862 271.109 904.867 269.949 901.363 269.949C896.108 269.949 892 272.541 889.041 277.726C886.082 282.887 884.602 290.19 884.602 299.636C884.602 305.934 885.265 311.284 886.591 315.688C887.916 320.091 889.822 323.441 892.308 325.737C894.817 328.034 897.836 329.182 901.363 329.182ZM965.994 259.864L942.556 346.938H934.886L958.324 259.864H965.994ZM1007.18 300.915V308.727H975.36V300.915H1007.18Z" fill="white"/>
</g>
<defs>
<filter id="filter0_d_256_57" x="0" y="-29" width="1091.41" height="482" filterUnits="userSpaceOnUse" color-interpolation-filters="sRGB">
<feFlood flood-opacity="0" result="BackgroundImageFix"/>
<feColorMatrix in="SourceAlpha" type="matrix" values="0 0 0 0 0 0 0 0 0 0 0 0 0 0 0 0 0 0 127 0" result="hardAlpha"/>
<feOffset dx="12" dy="21"/>
<feGaussianBlur stdDeviation="25"/>
<feComposite in2="hardAlpha" operator="out"/>
<feColorMatrix type="matrix" values="0 0 0 0 0 0 0 0 0 0 0 0 0 0 0 0 0 0 0.4 0"/>
<feBlend mode="normal" in2="BackgroundImageFix" result="effect1_dropShadow_256_57"/>
<feBlend mode="normal" in="SourceGraphic" in2="effect1_dropShadow_256_57" result="shape"/>
</filter>
</defs>
</svg>
